<?xml version="1.0" encoding="utf-8"?>
<!-- Generator: Adobe Illustrator 27.5.0, SVG Export Plug-In . SVG Version: 6.00 Build 0)  -->
<svg version="1.1" id="Layer_1" xmlns="http://www.w3.org/2000/svg" xmlns:xlink="http://www.w3.org/1999/xlink" x="0px" y="0px"
	 viewBox="0 0 159.2 33.3" style="enable-background:new 0 0 159.2 33.3;" xml:space="preserve">
<style type="text/css">
	.st0{fill:#FFFFFF;}
</style>
<path class="st0" d="M0,25.8v-2.9l1.2-0.1c0.7-0.1,1-0.4,1-1V5L0.2,4.9V1.9h10.3c2.7,0,4.8,0.6,6.3,1.9C18.3,5,19,6.9,19,9.4
	s-0.9,4.5-2.6,5.9c-1.7,1.4-4,2.1-6.8,2.1H6.6v5.2l3.5,0.1v3.1H0z M6.6,13.9h2.6c3.5,0,5.3-1.4,5.3-4.3c0-1.7-0.5-2.9-1.4-3.4
	c-0.9-0.6-2.3-0.9-4.3-0.9H6.6V13.9z M27.8,7.7v15.1l2.1,0.1v2.9h-8.6v-2.7l1.2-0.1c0.7-0.1,1-0.5,1-1.2v-10c0-0.4-0.1-0.7-0.2-0.8
	c-0.1-0.1-0.3-0.2-0.7-0.2l-1.3-0.1v-3H27.8z M23.3,4.6c-0.5-0.5-0.8-1.1-0.8-1.9s0.3-1.4,0.8-1.9c0.5-0.5,1.2-0.8,2-0.8
	s1.5,0.3,2,0.8C27.7,1.3,28,1.9,28,2.7s-0.3,1.4-0.8,1.9c-0.5,0.5-1.2,0.7-2,0.7S23.8,5.1,23.3,4.6z M34.2,21.8V4.2
	c0-0.4-0.1-0.6-0.2-0.8c-0.1-0.1-0.3-0.2-0.7-0.3L32,3.1v-3h6.4v15.6c1.3-0.1,2.5-0.5,3.5-1.2c1-0.7,1.7-1.6,2-2.7
	c0.1-0.2,0.1-0.4,0.1-0.6c0-0.4-0.2-0.6-0.7-0.6l-1.4-0.1V7.7h7.5v2.9l-1.7,0.1c-0.3,2.4-1.4,4.4-3.2,5.8l3.5,6.3l2.2,0.1v2.9H45
	l-4.1-7.5c-0.8,0.2-1.6,0.4-2.4,0.5v4h0l2.1,0.1v2.9h-8.6v-2.7l1.2-0.1c0.4,0,0.6-0.1,0.8-0.3C34.1,22.5,34.2,22.2,34.2,21.8z
	 M68.1,8.4v13.4c0,0.4,0.1,0.6,0.2,0.8c0.1,0.1,0.4,0.2,0.7,0.3l1.2,0.1v2.9h-5.7v-2.1l-0.1,0c-1.2,1.7-2.8,2.6-4.9,2.6
	c-2.4,0-4.3-0.8-5.4-2.3c-1.2-1.6-1.8-3.7-1.8-6.4c0-3.3,0.8-5.8,2.4-7.6s4-2.7,7.1-2.7C63.7,7.2,65.9,7.6,68.1,8.4z M63.9,20.1
	v-9.3c-0.7-0.3-1.6-0.5-2.8-0.5c-1.6,0-2.8,0.6-3.5,1.9c-0.7,1.3-1.1,3-1.1,5.1c0,3.9,1.2,5.8,3.7,5.8c1.1,0,1.9-0.3,2.6-0.9
	C63.6,21.6,63.9,20.9,63.9,20.1z M74,29.2V11.8c0-0.4-0.1-0.7-0.2-0.8c-0.1-0.2-0.3-0.3-0.7-0.3l-1.5-0.1V7.7h6.1V10
	c0.4-0.7,1.1-1.4,2.1-2c1-0.6,2.2-0.9,3.6-0.9c4.3,0,6.5,3,6.5,9.1c0,3.2-0.7,5.7-2.1,7.5c-1.4,1.7-3.3,2.6-5.8,2.6
	c-1.4,0-2.7-0.3-3.9-1v5l2.9,0.1v2.8h-9.3v-2.7l1.2-0.1c0.4,0,0.6-0.2,0.8-0.3C73.9,30,74,29.7,74,29.2z M85.4,16.7c0-4-1.2-6-3.6-6
	c-1,0-1.9,0.3-2.6,0.9c-0.7,0.6-1,1.3-1,2.2V22c0.9,0.6,2,0.9,3.3,0.9c1.3,0,2.3-0.6,3-1.8C85.1,19.9,85.4,18.4,85.4,16.7z
	 M101.5,7.2c1.8,0,3.2,0.4,4.3,1.3c1.1,0.9,1.6,2.1,1.6,3.7c0,1.1-0.2,2-0.7,2.8c-0.5,0.8-1,1.4-1.7,1.9c-0.7,0.5-1.5,0.8-2.4,1.1
	c-1.6,0.5-3.4,0.7-5.4,0.7c0.1,1.3,0.5,2.3,1.2,3.1c0.7,0.8,1.8,1.2,3.3,1.2s3-0.5,4.5-1.6l1.4,2.9c-0.5,0.4-1.3,0.9-2.4,1.3
	c-1.1,0.5-2.4,0.7-3.9,0.7c-2.9,0-5.1-0.8-6.4-2.4c-1.4-1.6-2.1-3.9-2.1-6.7s0.8-5.2,2.3-7.1S98.7,7.2,101.5,7.2z M99.8,15.4
	c0.9-0.2,1.7-0.5,2.4-1c0.7-0.6,1.1-1.2,1.1-1.9c0-1.5-0.7-2.2-2.2-2.2c-1.3,0-2.4,0.5-3.1,1.6c-0.7,1.1-1.1,2.3-1.2,3.8
	C98,15.6,99,15.6,99.8,15.4z M118.9,7.2c1,0,2,0.1,3,0.4V4c0-0.5-0.3-0.8-0.9-0.9L119.4,3V0.1h6.7V22c0,0.6,0.3,0.8,0.9,0.8l1.3,0.1
	v2.9h-5.8v-2.1l-0.1,0c-1.1,1.8-2.7,2.6-4.9,2.6c-2.7,0-4.7-0.9-5.8-2.7c-1-1.7-1.5-3.7-1.5-6.1c0-3.1,0.8-5.6,2.3-7.5
	C114,8.1,116.2,7.2,118.9,7.2z M121.9,20.2v-9.3c-0.9-0.4-1.8-0.6-2.7-0.6c-1.6,0-2.7,0.6-3.5,1.9c-0.7,1.3-1.1,2.9-1.1,4.9
	c0,4,1.3,6,3.9,6c1,0,1.8-0.3,2.4-0.8C121.6,21.7,121.9,21,121.9,20.2z M136.9,7.7v15.1l2.1,0.1v2.9h-8.6v-2.7l1.2-0.1
	c0.7-0.1,1-0.5,1-1.2v-10c0-0.4-0.1-0.7-0.2-0.8c-0.1-0.1-0.3-0.2-0.7-0.2l-1.3-0.1v-3H136.9z M132.3,4.6c-0.5-0.5-0.8-1.1-0.8-1.9
	s0.3-1.4,0.8-1.9c0.5-0.5,1.2-0.8,2-0.8c0.8,0,1.5,0.3,2,0.8c0.5,0.5,0.8,1.1,0.8,1.9s-0.3,1.4-0.8,1.9c-0.5,0.5-1.2,0.7-2,0.7
	C133.5,5.3,132.8,5.1,132.3,4.6z M157.2,8.4v13.4c0,0.4,0.1,0.6,0.2,0.8c0.1,0.1,0.4,0.2,0.7,0.3l1.2,0.1v2.9h-5.7v-2.1l-0.1,0
	c-1.2,1.7-2.8,2.6-4.9,2.6c-2.4,0-4.3-0.8-5.4-2.3c-1.2-1.6-1.8-3.7-1.8-6.4c0-3.3,0.8-5.8,2.4-7.6s4-2.7,7.1-2.7
	C152.8,7.2,154.9,7.6,157.2,8.4z M153,20.1v-9.3c-0.7-0.3-1.6-0.5-2.8-0.5c-1.6,0-2.8,0.6-3.5,1.9s-1.1,3-1.1,5.1
	c0,3.9,1.2,5.8,3.7,5.8c1.1,0,1.9-0.3,2.6-0.9C152.7,21.6,153,20.9,153,20.1z"/>
</svg>
